<?xml version="1.0" encoding="UTF-8"?><svg width="98px" height="108px" viewBox="0 0 98 108" version="1.1" xmlns="http://www.w3.org/2000/svg" xmlns:xlink="http://www.w3.org/1999/xlink"><title>Delphi Economic Forum</title><g id="Symbols" stroke="none" stroke-width="1" fill="none" fill-rule="evenodd"><g id="Navigation" transform="translate(-671.000000, -28.000000)" fill="#052F5F"><g id="Group-4" transform="translate(671.000000, 28.000000)"><path d="M32.9394414,7.39176207 C36.9838552,9.68955517 43.0188207,14.0440034 48.6022345,13.8894517 C54.5962345,13.7293138 59.9859931,9.86738276 64.4167862,7.24372759 C69.3587172,4.30631379 74.2038207,2.09324483 79.638269,0.000279310345 C70.9060966,1.16314138 64.1598207,4.59772759 56.5867862,6.94765862 C53.9892,7.74741724 51.1123034,8.86745172 48.4514069,8.86745172 C45.8296138,8.86745172 42.9126828,7.74183103 40.328131,6.94765862 C32.4255103,4.50927931 25.8673034,0.975072414 17.2757172,0.14552069 C22.6338207,1.91076207 27.9137172,4.5279 32.9394414,7.39176207" id="Fill-1"/><path d="M28.1583,30.6199552 C28.1583,26.5680931 26.0588172,24.7395414 22.1037828,24.7395414 L19.2771621,24.7395414 L19.2771621,38.3056448 L22.3030241,38.3056448 C26.6314034,38.3056448 28.1583,34.3534034 28.1583,30.6199552 L28.1583,30.6199552 Z M22.1037828,23.1130241 C22.8262655,23.1130241 23.5524724,23.1660931 24.2311966,23.2415069 C28.3081966,23.542231 29.6870586,27.0205759 29.6870586,30.6199552 C29.6870586,35.2257828 27.6341276,39.8055414 22.3551621,39.8055414 L17.7735414,39.8055414 L17.7735414,23.1130241 L22.1037828,23.1130241 Z" id="Fill-3"/><polygon id="Fill-5" points="40.4886414 23.1134897 40.4886414 24.6906621 32.9342276 24.6906621 32.9342276 30.548731 40.4886414 30.548731 40.4886414 32.0002138 32.9342276 32.0002138 32.9342276 38.3824552 40.4886414 38.3824552 40.4886414 39.8060069 31.4287448 39.8060069 31.4287448 23.1134897"/><polygon id="Fill-7" points="44.3718931 23.1134897 44.3718931 38.2549034 50.5018241 38.2549034 50.5018241 39.8060069 42.8692034 39.8060069 42.8692034 23.1134897"/><path d="M56.6557759,32.1001138 C59.3362241,32.1001138 61.1843276,31.2984931 61.1843276,28.3210448 C61.1843276,26.2197 60.0372931,24.9171828 57.9108103,24.7393552 C57.4834655,24.7142172 57.0561207,24.7142172 56.6557759,24.7142172 L53.6029138,24.7142172 L53.6029138,32.1001138 L56.6557759,32.1001138 Z M57.1054655,23.113769 C60.384569,23.113769 62.7903621,24.8175621 62.7903621,28.3210448 C62.7903621,31.6969759 60.5847414,33.5739414 57.2600172,33.5739414 L53.6029138,33.5739414 L53.6029138,39.8053552 L52.0769483,39.8053552 L52.0769483,23.113769 L57.1054655,23.113769 Z" id="Fill-9"/><polygon id="Fill-11" points="66.258931 23.1134897 66.258931 30.548731 74.1187241 30.548731 74.1187241 23.1134897 75.6186207 23.1134897 75.6186207 39.8060069 74.1187241 39.8060069 74.1187241 31.9713517 66.258931 31.9713517 66.258931 39.8060069 64.7562414 39.8060069 64.7562414 23.1134897"/><polygon id="Fill-13" points="78.4433793 39.8054483 79.9665517 39.8054483 79.9665517 23.112931 78.4433793 23.112931"/><polygon id="Fill-15" points="9.05803448 43.968569 9.05803448 45.5476034 1.50362069 45.5476034 1.50362069 51.4000862 9.05803448 51.4000862 9.05803448 52.8506379 1.50362069 52.8506379 1.50362069 59.2338103 9.05803448 59.2338103 9.05803448 60.6573621 -2.9851983e-13 60.6573621 -2.9851983e-13 43.968569"/><path d="M10.8696414,52.2505862 C10.8696414,48.2257241 12.1470207,43.6701724 17.0023655,43.6701724 C18.9798828,43.6701724 20.5821931,44.469 21.8344345,45.9242069 L21.8344345,48.5227241 C20.7814345,46.6960345 19.3038828,45.2687586 17.0526414,45.2687586 C13.2754345,45.2687586 12.399331,49.1986552 12.399331,52.2775862 C12.399331,55.1554138 13.3015034,59.454931 16.9800207,59.454931 C19.257331,59.454931 20.6064,57.8582069 21.7552966,56.079931 L21.7552966,58.4047241 C20.5821931,60.0843103 18.9798828,60.9622759 16.9520897,60.9622759 C12.0995379,60.9622759 10.8696414,56.2801034 10.8696414,52.2505862" id="Fill-16"/><path d="M29.4734793,45.269131 C25.6469276,45.269131 24.795031,48.8238207 24.795031,52.0014414 C24.795031,55.0068207 25.6469276,59.4553034 29.4734793,59.4553034 C33.3773069,59.4553034 34.1519276,55.1772 34.1519276,52.0777862 C34.1519276,48.9495103 33.3558931,45.269131 29.4734793,45.269131 M23.2709276,51.9520966 C23.2709276,47.7736138 24.5445828,43.6426138 29.4734793,43.6426138 C34.353031,43.6426138 35.6788241,47.7736138 35.6788241,51.9520966 C35.6788241,53.7266483 35.5335828,55.7060276 34.8073759,57.3064759 C33.7767207,59.5120966 31.975169,60.9617172 29.4734793,60.9617172 C24.4431,60.9617172 23.2709276,56.0570276 23.2709276,51.9520966" id="Fill-17"/><path d="M37.6341828,43.968569 L39.8891483,43.968569 L47.2992517,57.0542586 C47.6037,57.6063621 47.8941828,58.1556724 48.1744241,58.7599138 C48.0980793,58.1296034 48.0766655,57.4573966 48.0766655,56.8047414 L48.0766655,43.968569 L49.5747,43.968569 L49.5747,60.6573621 L47.6735276,60.6573621 L39.8174586,46.8212586 C39.5148724,46.3212931 39.2672172,45.8213276 39.0679759,45.2692241 C39.1154586,45.8455345 39.1387345,46.4218448 39.1387345,46.9730172 L39.1387345,60.6573621 L37.6341828,60.6573621 L37.6341828,43.968569 Z" id="Fill-18"/><path d="M57.5194966,45.269131 C53.6929448,45.269131 52.8419793,48.8238207 52.8419793,52.0014414 C52.8419793,55.0068207 53.6929448,59.4553034 57.5194966,59.4553034 C61.4242552,59.4553034 62.201669,55.1772 62.201669,52.0777862 C62.201669,48.9495103 61.3981862,45.269131 57.5194966,45.269131 M51.3094966,51.9520966 C51.3094966,47.7736138 52.5924621,43.6426138 57.5194966,43.6426138 C62.4009103,43.6426138 63.7304276,47.7736138 63.7304276,51.9520966 C63.7304276,53.7266483 63.5777379,55.7060276 62.8450138,57.3064759 C61.8246,59.5120966 60.0193241,60.9617172 57.5194966,60.9617172 C52.4881862,60.9617172 51.3094966,56.0570276 51.3094966,51.9520966" id="Fill-19"/><path d="M66.9244345,49.6724586 L66.9244345,60.6568034 L65.5027448,60.6568034 L65.5027448,43.9689414 L67.7521241,43.9689414 L72.0348828,57.0332172 C72.2862621,57.8311138 72.5357793,58.6588034 72.6558828,59.511631 C72.8048483,58.6588034 73.0329517,57.8581138 73.2880552,57.0332172 L77.6881241,43.9689414 L79.8648828,43.9689414 L79.8648828,60.6568034 L78.3640552,60.6568034 L78.3640552,49.6724586 C78.3640552,48.225631 78.414331,46.7248034 78.5158138,45.2686655 C78.3640552,46.0963552 78.1908828,46.9221828 77.9171586,47.6968034 L73.5850552,60.6568034 L71.7071586,60.6568034 L67.3769172,47.6968034 C67.1292621,46.9221828 66.9802966,46.0674931 66.8276069,45.2686655 C66.8760207,46.7248034 66.9244345,48.1995621 66.9244345,49.6724586" id="Fill-20"/><polygon id="Fill-21" points="82.6553793 60.6568966 84.185069 60.6568966 84.185069 43.9681034 82.6553793 43.9681034"/><path d="M86.7107793,52.2505862 C86.7107793,48.2257241 87.9844345,43.6701724 92.8444345,43.6701724 C94.8182276,43.6701724 96.4186759,44.469 97.6709172,45.9242069 L97.6709172,48.5227241 C96.6197793,46.6960345 95.1450207,45.2687586 92.8909862,45.2687586 C89.1156414,45.2687586 88.2358138,49.1986552 88.2358138,52.2775862 C88.2358138,55.1554138 89.1370552,59.454931 92.8155724,59.454931 C95.0956759,59.454931 96.4419517,57.8582069 97.5964345,56.079931 L97.5964345,58.4047241 C96.4186759,60.0843103 94.8182276,60.9622759 92.7913655,60.9622759 C87.9388138,60.9622759 86.7107793,56.2801034 86.7107793,52.2505862" id="Fill-22"/><polygon id="Fill-23" points="19.3926103 65.7301034 19.3926103 81.3202759 24.5179552 81.3202759 24.5179552 82.9188621 19.3926103 82.9188621 19.3926103 107.372483 17.7921621 107.372483 17.7921621 64.1305862 24.5179552 64.1305862 24.5179552 65.7301034"/><path d="M33.1649379,65.6791759 L31.3000759,65.6791759 C30.0645931,65.6791759 29.4780414,66.4286586 29.4780414,67.8652448 L29.4780414,103.845072 C29.4780414,105.289107 30.0645931,105.98459 31.3000759,105.98459 L33.1649379,105.98459 C34.3929724,105.98459 34.9776621,105.236969 34.9776621,103.793866 L34.9776621,67.8652448 C34.9776621,66.4286586 34.3929724,65.6791759 33.1649379,65.6791759 M33.2142828,107.531969 L31.2414207,107.531969 C30.2321793,107.531969 29.3728345,107.209831 28.7890759,106.571141 C28.2025241,105.927797 27.8822483,105.074038 27.8822483,104.060141 L27.8822483,67.4379 C27.8822483,65.2527621 29.0553517,64.1308655 31.4574207,64.1308655 L33.0588,64.1308655 C34.0745586,64.1308655 34.8705931,64.4530034 35.5660759,65.0889 C36.2606276,65.7303828 36.5799724,66.5310724 36.5799724,67.546831 L36.5799724,104.060141 C36.5799724,106.355141 35.4599379,107.531969 33.2142828,107.531969" id="Fill-24"/><path d="M45.6770172,65.7301034 L42.3597414,65.7301034 L42.3597414,81.3202759 L45.6770172,81.3202759 C46.8976034,81.3202759 47.4822931,80.6275862 47.4822931,79.1844828 L47.4822931,67.8118966 C47.4822931,66.4283793 46.8976034,65.7301034 45.6770172,65.7301034 L45.6770172,65.7301034 Z M47.4822931,85.1635862 C47.4822931,83.6702069 46.8976034,82.9188621 45.6770172,82.9188621 L42.3597414,82.9188621 L42.3597414,107.372483 L40.7639483,107.372483 L40.7639483,64.1305862 L45.5103621,64.1305862 C47.912431,64.1305862 49.0892586,65.3027586 49.0892586,67.6517586 L49.0892586,79.8203793 C49.0892586,80.946 48.5529828,81.7485517 47.4822931,82.1191034 C48.5529828,82.7065862 49.0892586,83.6702069 49.0892586,85.0565172 L49.0892586,107.372483 L47.4822931,107.372483 L47.4822931,85.1635862 Z" id="Fill-25"/><path d="M57.9259862,107.53169 L56.3758138,107.53169 C53.9765379,107.53169 52.8015724,106.354862 52.8015724,103.957448 L52.8015724,64.1305862 L54.4038828,64.1305862 L54.4038828,103.957448 C54.4038828,105.289759 54.9932276,105.98431 56.2194,105.98431 L58.0898483,105.98431 C59.3141586,105.98431 59.8997793,105.341897 59.8997793,104.006793 L59.8997793,64.1305862 L61.5048828,64.1305862 L61.5048828,104.059862 C61.5048828,106.354862 60.3271241,107.53169 57.9259862,107.53169" id="Fill-26"/><polygon id="Fill-27" points="67.0526379 65.5719207 67.0526379 107.372576 65.4549828 107.372576 65.4549828 64.1306793 68.3905345 64.1306793 72.6621207 106.091472 76.9299828 64.1306793 79.8124655 64.1306793 79.8124655 107.372576 78.2110862 107.372576 78.2110862 65.5719207 73.832431 107.372576 71.4852931 107.372576"/></g></g></g></svg>
